<svg width="1140" height="284" viewBox="0 0 1140 284" fill="none" xmlns="http://www.w3.org/2000/svg">
<path d="M234.688 281V176H263.488V281H234.688ZM249.288 160.2C243.688 160.2 239.355 159.067 236.288 156.8C233.355 154.4 231.888 150.933 231.888 146.4C231.888 141.733 233.355 138.2 236.288 135.8C239.355 133.4 243.688 132.2 249.288 132.2C255.022 132.2 259.355 133.4 262.288 135.8C265.355 138.2 266.888 141.733 266.888 146.4C266.888 150.8 265.355 154.2 262.288 156.6C259.355 159 255.022 160.2 249.288 160.2ZM349.757 283.8C343.09 283.8 337.29 282.533 332.357 280C327.424 277.333 323.424 273.533 320.357 268.6C317.29 263.667 315.157 257.667 313.957 250.6H310.157L309.957 281H286.157V229.4V138H314.957V172.4C314.957 175.6 314.757 179.067 314.357 182.8C313.957 186.4 313.357 190.133 312.557 194C311.89 197.867 311.157 201.867 310.357 206H314.757C316.49 199.333 318.824 193.6 321.757 188.8C324.824 183.867 328.69 180.133 333.357 177.6C338.024 174.933 343.557 173.6 349.957 173.6C358.757 173.6 366.357 175.867 372.757 180.4C379.157 184.933 384.09 191.333 387.557 199.6C391.157 207.867 392.957 217.667 392.957 229C392.957 240.067 391.224 249.733 387.757 258C384.29 266.133 379.29 272.467 372.757 277C366.357 281.533 358.69 283.8 349.757 283.8ZM339.557 260.2C344.357 260.2 348.49 258.933 351.957 256.4C355.424 253.733 358.09 250 359.957 245.2C361.824 240.4 362.757 234.8 362.757 228.4C362.757 222 361.824 216.467 359.957 211.8C358.224 207.133 355.69 203.467 352.357 200.8C349.024 198.133 344.957 196.8 340.157 196.8C336.957 196.8 334.024 197.4 331.357 198.6C328.69 199.8 326.357 201.467 324.357 203.6C322.357 205.6 320.624 207.933 319.157 210.6C317.69 213.133 316.624 215.8 315.957 218.6C315.29 221.4 314.957 224.067 314.957 226.6V230.4C314.957 233.467 315.424 236.8 316.357 240.4C317.29 243.867 318.757 247.133 320.757 250.2C322.89 253.133 325.49 255.533 328.557 257.4C331.624 259.267 335.29 260.2 339.557 260.2ZM458.496 283.8C449.829 283.8 442.096 282.6 435.296 280.2C428.629 277.8 422.963 274.333 418.296 269.8C413.629 265.267 410.029 259.667 407.496 253C405.096 246.333 403.896 238.8 403.896 230.4C403.896 222.133 405.029 214.533 407.296 207.6C409.696 200.533 413.163 194.467 417.696 189.4C422.229 184.2 427.763 180.2 434.296 177.4C440.829 174.6 448.229 173.2 456.496 173.2C464.496 173.2 471.629 174.533 477.896 177.2C484.163 179.733 489.363 183.6 493.496 188.8C497.763 194 500.829 200.4 502.696 208C504.696 215.467 505.429 224.067 504.896 233.8L422.496 234.6V218.8L488.296 218.2L478.096 226.2C479.029 219.133 478.563 213.333 476.696 208.8C474.829 204.267 472.096 200.933 468.496 198.8C465.029 196.667 461.163 195.6 456.896 195.6C451.829 195.6 447.363 196.933 443.496 199.6C439.629 202.267 436.629 206.2 434.496 211.4C432.363 216.467 431.296 222.6 431.296 229.8C431.296 241.133 433.763 249.467 438.696 254.8C443.763 260.133 450.363 262.8 458.496 262.8C462.229 262.8 465.363 262.333 467.896 261.4C470.563 260.333 472.696 259 474.296 257.4C476.029 255.8 477.363 254 478.296 252C479.363 250 480.229 248 480.896 246L505.896 251.4C504.696 256.333 502.896 260.8 500.496 264.8C498.229 268.667 495.163 272.067 491.296 275C487.429 277.8 482.763 279.933 477.296 281.4C471.963 283 465.696 283.8 458.496 283.8ZM690.282 281V215V138H719.282V170.8C719.282 173.467 719.149 176.267 718.882 179.2C718.749 182.133 718.415 185.133 717.882 188.2C717.482 191.133 717.015 194.133 716.482 197.2C716.082 200.267 715.615 203.333 715.082 206.4H719.482C721.349 199.6 723.682 193.733 726.482 188.8C729.415 183.867 733.149 180.067 737.682 177.4C742.215 174.6 747.949 173.2 754.882 173.2C767.149 173.2 776.349 177.533 782.482 186.2C788.615 194.733 791.682 207.867 791.682 225.6V281H762.682V230C762.682 218.8 761.015 210.533 757.682 205.2C754.482 199.733 749.615 197 743.082 197C737.749 197 733.349 198.6 729.882 201.8C726.415 205 723.815 209.333 722.082 214.8C720.349 220.133 719.349 226.133 719.082 232.8V281H690.282ZM861.254 283.8C852.587 283.8 844.854 282.6 838.054 280.2C831.387 277.8 825.721 274.333 821.054 269.8C816.387 265.267 812.787 259.667 810.254 253C807.854 246.333 806.654 238.8 806.654 230.4C806.654 222.133 807.787 214.533 810.054 207.6C812.454 200.533 815.921 194.467 820.454 189.4C824.987 184.2 830.521 180.2 837.054 177.4C843.587 174.6 850.987 173.2 859.254 173.2C867.254 173.2 874.387 174.533 880.654 177.2C886.921 179.733 892.121 183.6 896.254 188.8C900.521 194 903.587 200.4 905.454 208C907.454 215.467 908.187 224.067 907.654 233.8L825.254 234.6V218.8L891.054 218.2L880.854 226.2C881.787 219.133 881.321 213.333 879.454 208.8C877.587 204.267 874.854 200.933 871.254 198.8C867.787 196.667 863.921 195.6 859.654 195.6C854.587 195.6 850.121 196.933 846.254 199.6C842.387 202.267 839.387 206.2 837.254 211.4C835.121 216.467 834.054 222.6 834.054 229.8C834.054 241.133 836.521 249.467 841.454 254.8C846.521 260.133 853.121 262.8 861.254 262.8C864.987 262.8 868.121 262.333 870.654 261.4C873.321 260.333 875.454 259 877.054 257.4C878.787 255.8 880.121 254 881.054 252C882.121 250 882.987 248 883.654 246L908.654 251.4C907.454 256.333 905.654 260.8 903.254 264.8C900.987 268.667 897.921 272.067 894.054 275C890.187 277.8 885.521 279.933 880.054 281.4C874.721 283 868.454 283.8 861.254 283.8ZM974.241 283.8C965.175 283.8 957.241 282.467 950.441 279.8C943.641 277.133 937.975 273.4 933.441 268.6C928.908 263.8 925.508 258.133 923.241 251.6C920.975 244.933 919.841 237.667 919.841 229.8C919.841 221.533 920.975 214 923.241 207.2C925.641 200.267 929.108 194.267 933.641 189.2C938.175 184.133 943.775 180.2 950.441 177.4C957.108 174.6 964.708 173.2 973.241 173.2C981.775 173.2 989.175 174.6 995.441 177.4C1001.84 180.2 1006.97 184.133 1010.84 189.2C1014.84 194.133 1017.57 200 1019.04 206.8L992.441 215.4C992.041 211.267 990.908 207.733 989.041 204.8C987.308 201.733 984.908 199.467 981.841 198C978.908 196.4 975.575 195.6 971.841 195.6C967.975 195.6 964.641 196.4 961.841 198C959.041 199.467 956.641 201.667 954.641 204.6C952.775 207.4 951.308 210.867 950.241 215C949.308 219 948.841 223.533 948.841 228.6C948.841 235.8 949.775 241.933 951.641 247C953.641 251.933 956.508 255.733 960.241 258.4C964.108 260.933 968.841 262.2 974.441 262.2C979.775 262.2 984.041 261.2 987.241 259.2C990.441 257.067 992.775 254.4 994.241 251.2C995.841 247.867 996.841 244.467 997.241 241L1022.44 246.6C1021.77 251.8 1020.31 256.667 1018.04 261.2C1015.91 265.733 1012.84 269.667 1008.84 273C1004.84 276.333 999.975 279 994.241 281C988.641 282.867 981.975 283.8 974.241 283.8ZM1034.92 281V138H1063.32V217.4C1067.46 214.6 1071.39 211.6 1075.12 208.4C1078.99 205.067 1082.46 201.6 1085.52 198C1088.72 194.4 1091.52 190.733 1093.92 187C1096.46 183.267 1098.59 179.6 1100.32 176H1133.32C1131.32 181.067 1128.66 186.2 1125.32 191.4C1122.12 196.467 1118.26 201.2 1113.72 205.6C1109.32 209.867 1104.19 213.533 1098.32 216.6C1092.46 219.667 1085.99 221.733 1078.92 222.8V226.2C1087.86 224.6 1095.26 224.733 1101.12 226.6C1106.99 228.467 1111.79 231.467 1115.52 235.6C1119.39 239.6 1122.46 244.267 1124.72 249.6C1126.99 254.8 1129.06 260.067 1130.92 265.4L1135.52 281H1104.12L1101.52 271.2C1099.66 264.667 1097.59 258.933 1095.32 254C1093.06 249.067 1090.06 245.267 1086.32 242.6C1082.72 239.8 1077.72 238.4 1071.32 238.4H1063.32V281H1034.92Z" fill="black"/>
<path d="M203.452 0C212.788 1.19179 212.788 1.19179 218.359 6.39803C227.334 20.1977 226.793 37.4473 228.263 54.5087C228.779 58.8368 229.269 63.1962 229.784 67.5557C233.06 99.9222 233.06 99.9222 227.36 112.185C222.744 117.674 218.024 122.064 212.788 126.643C209.848 131.191 209.848 131.191 206.831 135.833C205.412 137.965 203.968 140.098 202.472 142.325C200.796 142.325 199.094 142.325 197.314 142.325C195.638 135.049 193.936 127.835 192.156 120.371C191.305 122.472 190.454 124.573 189.577 126.769C136.784 256.423 136.784 256.423 96.4219 276.966C87.6531 280.321 80.1739 282.046 70.9409 280.321C61.9142 273.328 56.8593 267.212 52.8876 255.231C51.8302 246.293 51.8302 246.293 51.2628 236.163C50.9533 230.705 50.9533 230.705 50.618 225.123C50.4117 221.328 50.2054 217.564 49.9991 213.644C49.7669 209.818 49.5606 205.991 49.3285 202.04C48.7869 192.599 48.2453 183.128 47.7295 173.688C46.6979 176.103 45.6405 178.518 44.5315 180.995C43.1388 184.132 41.7719 187.299 40.3276 190.53C38.9607 193.666 37.5681 196.802 36.1496 200.001C32.2552 208.187 32.2552 208.187 27.0971 214.459C11.7518 216.153 11.7518 216.153 4.06626 211.323C-0.6276 200.566 -0.833923 191.502 1.30669 179.96C11.726 153.239 24.0281 129.403 45.1505 114.098C54.435 110.335 61.2179 109.896 70.9409 110.962C80.7929 119.336 83.2945 128.556 86.4152 142.325C87.0084 152.518 87.0084 152.518 86.931 163.369C86.9052 167.258 86.9052 171.147 86.8794 175.193C86.8278 179.208 86.802 183.253 86.7505 187.393C86.7247 191.502 86.6989 195.61 86.6731 199.813C86.6215 209.943 86.5441 220.011 86.4152 230.141C111.406 206.305 126.081 176.479 140.42 142.513C141.761 139.377 143.077 136.272 144.444 133.041C156.514 104.344 166.881 74.9887 176.682 45.0998C179.158 37.6982 181.634 30.2965 184.109 22.9263C185.064 20.0409 186.018 17.1555 186.998 14.2074C191.228 3.16765 193.342 1.37997 203.452 0Z" fill="black"/>
<path d="M606.444 138C614.048 141.247 614.048 141.247 619.412 147.597C623.2 158.15 622.979 162.441 619.578 173.14C614.629 181.403 608.933 188.854 602.988 196.334C601.578 198.161 600.14 199.959 598.702 201.843C590.434 212.136 581.78 221.762 572.572 231.126C571.66 232.083 570.747 233.04 569.807 234.026C586.646 235.185 599.642 231.155 615.431 225.328C631.053 219.587 644.215 215.122 661.054 216.63C667.718 221.066 669.045 224.545 671.949 232.228C672.115 239.824 672.115 239.824 668.105 246.986C658.676 256.814 649.413 259.656 636.86 263.57C633.652 264.643 633.652 264.643 630.39 265.744C597.762 276.501 566.489 285.112 533.889 269.398C525.981 264.469 522.718 260.729 520.036 251.422C518.93 222.167 543.705 196.595 560.129 174.966C562.341 172.009 562.341 172.009 564.609 169.023C588.084 138.754 588.084 138.754 606.444 138Z" fill="black"/>
</svg>
